<svg version="1.1" id="Layer_1" xmlns="http://www.w3.org/2000/svg" xmlns:xlink="http://www.w3.org/1999/xlink" x="0px" y="0px"
	 width="100%" viewBox="0 0 951 951" enable-background="new 0 0 951 951" xml:space="preserve">
<path fill="#000000" opacity="1.000000" stroke="none" 
	d="
M1.000000,368.000000 
	C1.000000,245.333344 1.000000,123.166695 1.000000,1.000033 
	C317.999939,1.000022 634.999878,1.000022 951.999878,1.000011 
	C951.999878,317.999908 951.999878,634.999817 951.999939,951.999817 
	C635.000122,951.999878 318.000244,951.999878 1.000192,951.999939 
	C1.000000,757.500000 1.000000,563.000000 1.000000,368.000000 
M338.303009,72.057449 
	C337.637848,71.619316 336.972717,71.181183 336.171753,70.797707 
	C336.171753,70.797707 336.266235,70.685883 336.257996,70.040848 
	C335.596008,69.614807 334.933990,69.188759 334.062897,68.872963 
	C334.062897,68.872963 334.246796,68.724434 334.290680,68.088371 
	C333.658447,67.624855 333.026184,67.161339 332.328796,66.664291 
	C332.328796,66.664291 332.321747,66.591362 332.293152,65.912758 
	C330.957001,64.468521 329.665588,62.979660 328.277313,61.587418 
	C320.323151,53.610703 312.346008,45.656937 304.309631,37.692543 
	C304.309631,37.692543 304.285217,37.630054 304.217010,36.951557 
	C301.156647,33.954292 298.096313,30.957029 295.001221,28.000984 
	C295.001221,28.000984 295.041656,27.963715 294.882172,27.310987 
	C291.624756,24.167875 288.367310,21.024763 285.005707,18.002520 
	C285.005707,18.002520 285.116547,17.886293 284.990387,17.222649 
	C283.485046,15.680799 281.828552,14.257787 280.504303,12.573567 
	C277.254547,8.440480 273.608917,8.720524 269.130768,10.575014 
	C250.311401,18.368509 231.352371,25.824142 212.510788,33.564896 
	C202.442780,37.701172 192.509750,42.165958 181.757797,46.534519 
	C178.100784,48.088467 174.443787,49.642414 170.102463,51.052650 
	C163.441498,53.793297 156.780548,56.533939 149.400208,59.379704 
	C144.594604,61.362976 139.704315,63.167038 135.009705,65.385223 
	C131.132187,67.217339 127.486031,69.539108 123.008255,71.805435 
	C109.633583,77.231117 96.294716,82.747864 82.863541,88.029884 
	C78.540367,89.730042 76.947189,92.356514 77.008522,97.061905 
	C77.438232,130.026505 77.616440,162.994385 77.874504,195.961227 
	C78.183426,235.424881 78.514572,274.888397 78.794472,314.352234 
	C79.126266,361.134735 79.419403,407.917480 79.719048,454.700165 
	C80.170235,525.144226 80.609375,595.588257 81.074074,666.032166 
	C81.087753,668.106323 81.330772,670.178894 81.500519,672.764893 
	C83.779419,672.294556 85.451477,672.196533 86.925171,671.604553 
	C95.546463,668.141785 104.114296,664.546265 112.714211,661.029907 
	C119.101532,658.418335 125.510216,655.858948 132.672928,653.049561 
	C146.770569,647.281860 160.868210,641.514099 175.786011,635.645691 
	C183.802078,632.452332 191.867294,629.376404 199.825424,626.044739 
	C230.037521,613.396545 260.228546,600.697754 290.376984,587.898865 
	C292.555298,586.974121 294.329071,585.096436 296.822418,583.409302 
	C296.599915,579.729187 296.377411,576.049072 295.604858,571.537781 
	C295.719818,568.261963 295.834747,564.986145 296.416595,561.716553 
	C296.316620,561.203674 296.216675,560.690735 296.243683,559.201355 
	C296.373138,558.559631 296.502563,557.917969 297.369446,557.589661 
	C299.280731,559.113953 301.349762,560.478943 303.076691,562.189392 
	C311.733856,570.764160 320.301453,579.429321 328.977386,588.748413 
	C335.536896,595.789368 341.968872,602.954468 348.680786,609.847046 
	C366.075317,627.709900 383.603088,645.442871 401.059265,663.245850 
	C423.643188,686.278442 446.234222,709.304138 468.775360,732.378601 
	C487.824371,751.878357 506.711121,771.537476 525.857239,790.941040 
	C535.985718,801.205627 546.514038,811.075562 556.999329,821.020813 
	C556.999329,821.020813 556.873352,821.138306 556.956604,821.806885 
	C558.916748,823.585876 560.876892,825.364807 562.947266,827.019714 
	C562.947266,827.019714 562.864685,827.163635 562.980225,827.809448 
	C564.238403,828.937439 565.496582,830.065430 566.838501,831.151306 
	C566.838501,831.151306 566.812317,831.241333 566.917358,831.845337 
	C567.545898,832.286682 568.174500,832.728027 568.924988,833.051331 
	C568.924988,833.051331 568.837891,833.196899 568.942078,833.806641 
	C569.567871,834.257935 570.193665,834.709229 570.949097,835.020325 
	C570.949097,835.020325 570.845154,835.180481 570.944519,835.796143 
	C571.563660,836.282959 572.182800,836.769836 572.991638,837.582092 
	C572.991638,837.582092 573.230286,837.873474 573.301514,838.466431 
	C573.810669,838.735962 574.319824,839.005554 575.133606,839.850220 
	C582.207275,847.286865 589.206177,854.796448 596.368408,862.146790 
	C619.491272,885.877380 642.600891,909.621643 665.874390,933.203979 
	C673.865112,941.300720 672.412842,941.874634 683.015625,936.567688 
	C683.598267,936.276062 684.306946,936.246094 684.913757,935.991455 
	C696.914062,930.956177 708.908020,925.905640 721.665100,920.928528 
	C722.887268,920.579163 724.109375,920.229797 725.629456,920.057739 
	C725.914062,920.024597 726.047913,919.864807 726.746338,919.278870 
	C740.131592,913.689636 753.516846,908.100464 767.621460,902.649841 
	C775.092285,899.451599 782.563049,896.253296 790.808350,893.114685 
	C794.170837,891.763306 797.574219,890.504456 800.888611,889.044006 
	C813.419373,883.522400 825.921387,877.935425 838.973816,872.334534 
	C839.310181,872.210571 839.646545,872.086609 840.740479,872.062317 
	C846.336853,869.552246 851.933167,867.042175 858.028625,864.379578 
	C858.354492,864.257507 858.680359,864.135376 859.687805,864.162415 
	C860.447021,863.711487 861.206299,863.260559 862.586731,862.721252 
	C863.379211,862.452698 864.171753,862.184143 865.684143,862.038269 
	C870.888550,860.271301 872.836243,857.087646 872.762329,851.189880 
	C872.246460,810.063232 872.281860,768.930054 871.959900,727.800354 
	C870.795837,579.081970 869.561707,430.364105 868.339355,281.646118 
	C868.324890,279.889893 868.114258,278.135254 867.938965,275.549866 
	C865.313721,276.358521 863.272400,276.818939 861.363647,277.602264 
	C847.724976,283.199615 834.113159,288.862671 820.138184,294.551910 
	C820.138184,294.551910 819.873718,294.792847 819.099670,294.695068 
	C811.297119,298.049011 803.494629,301.402985 795.304810,304.742981 
	C795.304810,304.742981 794.962097,304.923920 794.182251,304.809052 
	C784.714233,308.619263 775.203308,312.327087 765.792786,316.274353 
	C759.095337,319.083649 752.533081,322.215240 745.220520,325.303528 
	C744.816162,325.528320 744.411743,325.753113 743.618347,325.808319 
	C743.364014,326.092590 743.109619,326.376831 742.107971,326.826233 
	C741.646729,327.039032 741.185486,327.251831 740.458679,327.279022 
	C740.458679,327.279022 740.161133,327.401367 740.161133,327.401367 
	C740.161133,327.401367 740.121338,327.720947 739.333679,327.748322 
	C726.486694,333.208038 713.639771,338.667755 700.095520,344.060455 
	C697.099365,345.378784 694.121643,346.741150 691.103699,348.007568 
	C679.569946,352.847351 668.017822,357.643250 656.485657,362.486847 
	C653.984741,363.537231 652.845886,365.232849 652.930725,368.222778 
	C653.161377,376.354309 652.990173,384.497223 652.262024,392.440399 
	C649.996948,390.506836 647.565918,388.735443 645.493408,386.613770 
	C630.649231,371.416687 615.910461,356.116669 601.076172,340.909851 
	C577.362793,316.601013 553.601440,292.339020 529.777222,267.387604 
	C526.593506,264.487213 523.409790,261.586853 520.160034,258.309937 
	C520.160034,258.309937 519.879517,258.050201 519.808411,257.391724 
	C506.231110,243.583466 492.653809,229.775192 478.770782,215.453461 
	C478.185303,214.961014 477.599823,214.468552 477.000488,214.001358 
	C477.000488,214.001358 477.024750,213.984680 476.832001,213.404663 
	C476.243073,212.903793 475.654175,212.402908 475.026367,211.994675 
	C475.026367,211.994675 475.101898,211.928406 474.895050,211.353348 
	C474.280090,210.876328 473.665131,210.399307 473.015137,209.999817 
	C473.015137,209.999817 473.080719,209.945572 472.886230,209.368881 
	C472.276123,208.884262 471.666046,208.399643 471.016144,207.996796 
	C471.016144,207.996796 471.087646,207.940613 470.910645,207.353546 
	C470.297852,206.866989 469.685059,206.380432 469.023163,205.988022 
	C469.023163,205.988022 469.107971,205.924164 468.923767,205.340286 
	C468.309418,204.854446 467.695068,204.368622 467.029358,203.982468 
	C467.029358,203.982468 467.119324,203.915558 466.952240,203.322464 
	C466.324585,202.847443 465.696960,202.372437 465.019379,201.987061 
	C465.019379,201.987061 465.104004,201.929001 464.965942,201.319611 
	C464.356873,200.818207 463.747803,200.316803 463.069092,199.941422 
	C463.069092,199.941422 463.186188,199.857666 463.051880,199.242783 
	C462.400116,198.782791 461.748352,198.322800 461.020721,197.957764 
	C461.020721,197.957764 461.129913,197.904388 461.035370,197.287369 
	C460.448547,196.759995 459.861755,196.232620 459.127655,195.105774 
	C458.496368,194.652893 457.865082,194.200012 457.096863,193.146957 
	C456.483643,192.670914 455.870392,192.194855 455.099121,191.130386 
	C454.480591,190.665710 453.862091,190.201035 453.114929,189.146545 
	C452.517059,188.668701 451.919189,188.190872 451.143005,187.136322 
	C450.522156,186.674179 449.901276,186.212051 449.138245,185.162216 
	C448.554443,184.663254 447.970642,184.164276 447.196503,183.086990 
	C446.561920,182.617081 445.927368,182.147171 445.123627,181.038696 
	C443.855621,179.905823 442.587585,178.772934 441.163788,176.978607 
	C439.717438,175.407272 438.325226,173.781784 436.815918,172.273392 
	C427.599304,163.062286 418.356049,153.877823 408.985321,144.038391 
	C395.699280,130.417892 382.462250,116.749069 369.105377,103.198387 
	C362.936615,96.940109 356.533722,90.912560 350.017426,84.971146 
	C350.017426,84.971146 350.221191,84.763474 350.247559,84.108139 
	C349.566956,83.673218 348.886322,83.238297 348.002167,82.989357 
	C348.002167,82.989357 348.197327,82.794113 348.206757,82.145401 
	C347.552307,81.690735 346.897858,81.236069 346.018555,80.928764 
	C346.018555,80.928764 346.224884,80.756279 346.239441,80.109848 
	C345.575439,79.666496 344.911469,79.223145 344.031250,78.920242 
	C344.031250,78.920242 344.226196,78.751465 344.228607,78.100441 
	C343.583710,77.648163 342.938812,77.195892 342.122253,76.861748 
	C342.122253,76.861748 342.256042,76.701988 342.253296,76.060188 
	C341.577515,75.636650 340.901764,75.213112 340.009308,74.970116 
	C340.009308,74.970116 340.211853,74.773529 340.219482,74.122627 
	C339.578461,73.664116 338.937408,73.205612 338.117065,72.824661 
	C338.117065,72.824661 338.265411,72.697525 338.303009,72.057449 
z"/>
<path fill="#FDFDFD" opacity="1.000000" stroke="none" 
	d="
M296.290955,583.661804 
	C294.329071,585.096436 292.555298,586.974121 290.376984,587.898865 
	C260.228546,600.697754 230.037521,613.396545 199.825424,626.044739 
	C191.867294,629.376404 183.802078,632.452332 175.328003,635.234863 
	C174.607620,632.859253 174.135284,630.896851 174.114212,628.929565 
	C173.768219,596.632446 173.448242,564.334961 173.184799,532.037109 
	C172.826294,488.079163 172.509216,444.120911 172.195480,400.162598 
	C171.854401,352.370453 171.497894,304.578430 171.219818,256.785889 
	C170.849686,193.170959 170.534561,129.555695 170.245987,65.940346 
	C170.223694,61.026608 170.597229,56.111069 170.786774,51.196365 
	C174.443787,49.642414 178.100784,48.088467 182.532013,46.709190 
	C184.739136,46.609863 186.280090,46.584694 187.585709,46.017654 
	C192.543747,43.864319 197.334930,41.306370 202.354904,39.320271 
	C212.891434,35.151604 223.582245,31.372929 234.119003,27.204823 
	C246.295792,22.387951 258.289124,17.091131 270.571045,12.570284 
	C272.943359,11.697054 276.398376,13.105996 279.132080,14.082993 
	C281.302734,14.858771 283.134369,16.583109 285.116547,17.886292 
	C285.116547,17.886293 285.005707,18.002520 285.055847,18.304848 
	C288.417847,21.726023 291.729767,24.844870 295.041656,27.963715 
	C295.041656,27.963715 295.001221,28.000984 294.996887,28.345816 
	C298.090149,31.670448 301.187683,34.650249 304.285217,37.630051 
	C304.285217,37.630054 304.309631,37.692543 304.296875,38.043663 
	C304.744690,39.248093 305.041473,40.259880 305.690674,40.930576 
	C313.558807,49.059162 321.458130,57.157974 329.420776,65.193733 
	C330.132782,65.912270 331.342957,66.137192 332.321747,66.591362 
	C332.321747,66.591362 332.328796,66.664291 332.267944,67.021591 
	C332.886993,67.827408 333.566895,68.275917 334.246796,68.724434 
	C334.246796,68.724434 334.062897,68.872963 334.101318,69.163597 
	C334.848602,69.864784 335.557404,70.275330 336.266235,70.685883 
	C336.266235,70.685883 336.171753,70.797707 336.175110,71.116974 
	C336.874115,71.856667 337.569763,72.277092 338.265411,72.697525 
	C338.265411,72.697525 338.117065,72.824661 338.124054,73.138359 
	C338.824646,73.892548 339.518250,74.333038 340.211853,74.773529 
	C340.211853,74.773529 340.009308,74.970116 340.072723,75.231888 
	C340.842773,75.896439 341.549408,76.299217 342.256042,76.701996 
	C342.256042,76.701988 342.122253,76.861748 342.153748,77.146217 
	C342.865540,77.870949 343.545868,78.311203 344.226196,78.751465 
	C344.226196,78.751465 344.031250,78.920242 344.087738,79.197540 
	C344.837769,79.901978 345.531342,80.329124 346.224884,80.756279 
	C346.224884,80.756279 346.018555,80.928764 346.069946,81.209534 
	C346.813324,81.924911 347.505310,82.359512 348.197327,82.794113 
	C348.197327,82.794113 348.002167,82.989357 348.054260,83.254181 
	C348.811310,83.933823 349.516266,84.348648 350.221191,84.763474 
	C350.221191,84.763474 350.017426,84.971146 350.050507,85.230469 
	C356.101898,92.607201 361.880920,99.945610 368.198883,106.786247 
	C376.158508,115.404366 384.470245,123.704697 392.800415,131.970459 
	C398.032471,137.162079 403.577179,142.038559 409.117950,147.364410 
	C419.122101,157.809189 428.989929,167.945984 438.928223,178.430298 
	C442.337372,181.844498 445.676025,184.911209 449.007324,187.988953 
	C449.000000,188.000000 449.021973,187.985718 449.031525,188.349396 
	C450.697479,193.593491 454.361847,196.318649 459.001831,197.997223 
	C459.000000,197.999847 459.004364,197.997101 459.042206,198.348923 
	C461.215240,201.378235 463.106018,204.305649 465.535950,206.681747 
	C470.780090,211.809845 476.484985,216.470825 481.670410,221.654037 
	C492.464447,232.443436 502.988983,243.502380 513.768799,254.306320 
	C515.408997,255.950119 517.823303,256.821533 519.879517,258.050201 
	C519.879517,258.050201 520.160034,258.309937 520.087769,258.866699 
	C522.233826,263.513824 524.844482,267.156769 529.860352,268.057220 
	C553.601440,292.339020 577.362793,316.601013 601.076172,340.909851 
	C615.910461,356.116669 630.649231,371.416687 645.493408,386.613770 
	C647.565918,388.735443 649.996948,390.506836 652.664062,392.837769 
	C663.614502,403.939087 674.162903,414.643005 685.266113,425.909943 
	C675.684204,429.976135 666.872131,433.715637 657.662231,437.364990 
	C654.852356,437.146271 652.198120,436.301941 650.072876,437.020996 
	C643.226868,439.337402 636.486328,442.026764 629.866760,444.939514 
	C611.571289,452.989746 593.360291,461.231934 575.109924,469.384674 
	C570.716064,471.347534 566.298828,473.257812 561.573730,475.069672 
	C552.604919,465.775116 543.909546,456.645264 535.314209,447.422150 
	C519.103088,430.027100 502.918518,412.607086 486.806335,395.120544 
	C484.432281,392.543976 482.103394,392.645172 479.214233,393.905182 
	C474.035126,396.164001 468.740845,398.157684 463.549347,400.389282 
	C455.654694,403.782867 447.806641,407.284882 439.558289,410.790924 
	C424.769104,416.726044 410.360382,422.611053 395.538208,428.364868 
	C391.839935,428.578247 388.291016,428.237518 385.315369,429.384277 
	C371.241272,434.808197 357.250580,440.467499 343.381439,446.396759 
	C336.461945,449.354919 329.857147,453.052765 323.128754,456.453186 
	C318.670654,458.706207 314.245850,461.025146 309.523193,463.466370 
	C308.820190,463.696655 308.400208,463.775146 307.752014,463.626526 
	C303.229431,464.995026 298.838989,466.385010 294.701996,468.317566 
	C293.535126,468.862671 293.110687,470.997070 292.389709,472.789551 
	C292.398773,474.993011 292.363861,476.809509 292.146423,479.090149 
	C292.029999,488.283142 292.013641,497.014130 292.244232,505.738647 
	C292.282166,507.174500 293.404053,508.581696 294.112213,510.284851 
	C294.534760,510.748505 294.870087,510.929413 295.181335,511.572052 
	C295.648865,527.114563 296.140442,542.195435 296.632019,557.276245 
	C296.502563,557.917969 296.373138,558.559631 295.936920,559.674683 
	C295.736664,560.668823 295.843201,561.189575 295.949707,561.710327 
	C295.834747,564.986145 295.719818,568.261963 295.531006,572.248657 
	C295.735077,576.526917 296.013000,580.094360 296.290955,583.661804 
M317.628143,342.902283 
	C318.425537,342.622192 319.222961,342.342072 320.215729,342.365875 
	C320.417694,342.163940 320.619659,341.962006 321.167633,341.579498 
	C321.167633,341.579498 321.553192,341.519104 322.168610,341.758087 
	C322.831726,341.318481 323.494843,340.878876 324.789185,340.071838 
	C335.609467,335.384827 346.429779,330.697784 357.993073,326.055176 
	C373.010193,320.037750 388.027313,314.020325 403.952179,307.639160 
	C364.904114,266.245117 326.797119,225.848709 288.690155,185.452286 
	C288.214478,185.665100 287.738770,185.877899 287.263092,186.090698 
	C287.172638,187.963318 286.974731,189.837860 287.008453,191.708237 
	C287.338348,209.999603 287.691986,228.290588 288.080078,246.580795 
	C288.139496,249.381866 288.408386,252.178482 288.625000,255.929138 
	C289.052277,275.313416 289.479584,294.697723 289.364258,314.662598 
	C289.238953,317.639374 289.918121,320.951996 288.841217,323.531464 
	C285.259094,332.111450 287.527283,340.909149 287.281464,349.568207 
	C287.116333,355.385803 291.456146,357.320831 296.842407,355.116974 
	C303.210571,352.511353 309.500519,349.928528 314.673828,344.258362 
	C315.052399,344.122833 315.430939,343.987274 316.330505,343.893646 
	C316.579529,343.670013 316.828552,343.446411 317.628143,342.902283 
z"/>
<path fill="#FDFEFE" opacity="1.000000" stroke="none" 
	d="
M864.964233,861.915649 
	C864.171753,862.184143 863.379211,862.452698 862.087463,862.528442 
	C860.727478,862.894775 859.866821,863.453979 859.006165,864.013306 
	C858.680359,864.135376 858.354492,864.257507 857.382263,864.285156 
	C851.151611,866.781433 845.567261,869.372009 839.982971,871.962646 
	C839.646545,872.086609 839.310181,872.210571 838.297363,872.236206 
	C836.044067,872.519653 834.377747,872.691101 832.904541,873.316956 
	C822.627869,877.683167 812.346863,882.044922 802.163086,886.621338 
	C797.997559,888.493347 794.069824,890.894653 790.033936,893.055054 
	C782.563049,896.253296 775.092285,899.451599 767.267334,902.270386 
	C765.429077,900.567810 763.863037,899.324951 762.473511,897.908936 
	C751.283630,886.505371 740.133850,875.062439 728.958618,863.644531 
	C697.164307,831.159668 665.362488,798.682251 633.565979,766.199524 
	C603.285034,735.265076 573.006958,704.327698 542.727661,673.391602 
	C513.262390,643.287231 483.818817,613.161560 454.325775,583.084473 
	C427.397186,555.622559 400.381622,528.245789 373.491211,500.746613 
	C369.249481,496.408813 365.467255,491.621674 361.866882,486.950867 
	C363.076538,486.315826 363.826660,485.609558 364.716858,485.252838 
	C378.436310,479.755249 392.247650,474.478302 405.869110,468.749329 
	C410.923676,466.623474 417.548645,466.217712 419.469727,458.945374 
	C423.567841,457.190826 427.388824,455.659943 431.388794,454.146759 
	C431.821777,454.112854 432.005463,453.970551 432.463501,453.552795 
	C443.317078,448.899994 453.826080,444.432007 464.702454,440.022308 
	C469.203369,438.371063 473.254333,436.392303 477.511719,435.086639 
	C479.179138,434.575287 482.068115,434.868713 483.112244,435.992645 
	C494.091278,447.810944 504.755707,459.920593 515.623169,471.843903 
	C520.654663,477.364380 525.941284,482.652344 531.154907,488.420593 
	C532.202881,491.346222 532.615723,494.417023 534.317810,496.356171 
	C541.045349,504.020721 548.052002,511.455811 555.271912,518.658569 
	C556.599060,519.982666 559.667847,520.721924 561.463501,520.179077 
	C565.466125,518.969055 569.172180,516.778198 573.387573,515.009399 
	C575.192017,514.362854 576.607849,513.694031 578.429443,513.024902 
	C581.848206,511.662811 584.861389,510.301086 588.273682,508.924377 
	C594.395874,506.603485 600.125183,504.313354 605.840454,501.988525 
	C620.232788,496.134033 634.662231,490.366333 648.963684,484.297394 
	C651.307617,483.302765 653.076904,480.954071 655.399536,479.061981 
	C655.905762,478.850128 656.124207,478.807465 656.673645,478.840179 
	C660.206421,477.290009 663.327393,475.474335 666.624512,474.072937 
	C678.762329,468.913757 690.958557,463.891846 703.333496,458.875305 
	C703.850159,458.872528 704.032349,458.683502 704.155273,458.299194 
	C704.229736,458.233002 704.358276,458.080872 704.720093,458.082092 
	C718.273499,452.652771 731.375366,446.985779 744.707153,441.924622 
	C749.144287,440.240204 750.365234,438.004242 750.040710,433.514679 
	C749.180054,421.609283 748.537415,409.678131 748.211975,397.746216 
	C747.559814,373.839722 747.177063,349.925934 747.078735,325.950195 
	C750.715088,324.670654 753.972290,323.498016 757.193481,322.233612 
	C766.910095,318.419586 776.683044,314.734833 786.280579,310.639984 
	C789.416504,309.302032 792.081604,306.860657 794.962097,304.923889 
	C794.962097,304.923920 795.304810,304.742981 795.912170,304.885132 
	C803.663147,302.485779 810.828186,300.001099 817.922241,297.327850 
	C818.770691,297.008179 819.232666,295.662811 819.873779,294.792847 
	C819.873718,294.792847 820.138184,294.551910 820.723267,294.718933 
	C827.056763,293.150360 832.957581,291.798615 838.518982,289.591858 
	C847.508118,286.025024 856.274109,281.895874 865.577637,277.809479 
	C865.842407,279.538940 866.135925,280.626129 866.157043,281.718567 
	C866.471375,298.015137 867.011353,314.312927 866.976929,330.609344 
	C866.921753,356.738678 866.222046,382.867645 866.265869,408.996002 
	C866.324707,444.124237 866.846619,479.251587 867.141663,514.379578 
	C867.481628,554.842102 867.776733,595.305054 868.117920,635.767578 
	C868.415588,671.067688 868.464172,706.373230 869.167542,741.665527 
	C869.649597,765.856812 867.476440,790.076538 870.738647,814.267456 
	C872.041565,823.928589 871.048279,833.901733 871.065979,843.732971 
	C871.078186,850.470825 872.661316,857.756409 864.964233,861.915649 
M663.792236,629.052979 
	C669.455505,635.119141 675.030212,641.270996 680.801880,647.232178 
	C690.470154,657.217834 700.263916,667.081787 710.155396,677.657837 
	C724.955444,693.597839 739.334290,709.949036 754.826233,725.213562 
	C755.331909,724.916199 755.837524,724.618835 756.343201,724.321472 
	C755.124451,668.693298 753.905701,613.065063 752.658997,556.162781 
	C736.798584,562.968506 721.909790,569.357300 706.256226,575.855347 
	C691.909180,581.680298 677.562073,587.505310 662.370789,593.188232 
	C655.799438,593.928894 649.326294,594.657288 643.400879,598.251404 
	C637.906311,601.584229 637.041199,605.797607 641.610168,610.552490 
	C645.293091,614.385193 649.299194,617.991028 652.440796,622.231750 
	C654.660461,625.227966 656.868103,626.493530 660.861206,625.994873 
	C661.355530,626.574158 661.849792,627.153503 662.371033,628.252747 
	C662.666565,628.382751 662.962097,628.512756 663.792236,629.052979 
z"/>
<path fill="#0190AC" opacity="1.000000" stroke="none" 
	d="
M131.909393,653.276367 
	C125.510216,655.858948 119.101532,658.418335 112.714211,661.029907 
	C104.114296,664.546265 95.546463,668.141785 86.925171,671.604553 
	C85.451477,672.196533 83.779419,672.294556 81.500519,672.764893 
	C81.330772,670.178894 81.087753,668.106323 81.074074,666.032166 
	C80.609375,595.588257 80.170235,525.144226 79.719048,454.700165 
	C79.419403,407.917480 79.126266,361.134735 78.794472,314.352234 
	C78.514572,274.888397 78.183426,235.424881 77.874504,195.961227 
	C77.616440,162.994385 77.438232,130.026505 77.008522,97.061905 
	C76.947189,92.356514 78.540367,89.730042 82.863541,88.029884 
	C96.294716,82.747864 109.633583,77.231117 123.492050,71.957581 
	C124.220116,72.343864 124.464378,72.577995 124.763077,73.289459 
	C125.150131,102.747795 125.555496,131.728180 125.798958,160.709915 
	C126.200607,208.524399 126.491592,256.339783 126.840553,304.154724 
	C127.167603,348.967926 127.544563,393.780762 127.836159,438.594208 
	C128.253540,502.738770 128.615814,566.883667 128.993073,631.028442 
	C129.025421,636.528198 128.741440,642.046021 129.126007,647.518799 
	C129.264771,649.493469 130.936966,651.360291 131.909393,653.276367 
z"/>
<path fill="#61DEE5" opacity="1.000000" stroke="none" 
	d="
M361.472565,487.042267 
	C365.467255,491.621674 369.249481,496.408813 373.491211,500.746613 
	C400.381622,528.245789 427.397186,555.622559 454.325775,583.084473 
	C483.818817,613.161560 513.262390,643.287231 542.727661,673.391602 
	C573.006958,704.327698 603.285034,735.265076 633.565979,766.199524 
	C665.362488,798.682251 697.164307,831.159668 728.958618,863.644531 
	C740.133850,875.062439 751.283630,886.505371 762.473511,897.908936 
	C763.863037,899.324951 765.429077,900.567810 766.907715,902.201111 
	C753.516846,908.100464 740.131592,913.689636 726.238464,919.298035 
	C725.382812,919.352234 725.249817,919.539917 725.331543,919.880371 
	C724.109375,920.229797 722.887268,920.579163 721.208984,920.578491 
	C716.742249,916.266846 712.671204,912.364441 708.730713,908.334229 
	C680.800598,879.768188 652.904236,851.169128 624.983215,822.594116 
	C595.780945,792.707764 566.570496,762.829407 537.350037,732.960815 
	C506.731628,701.663147 476.098389,670.379944 445.469177,639.092834 
	C430.095856,623.389343 414.737457,607.671143 399.336426,591.994873 
	C373.546570,565.744263 347.712280,539.537170 321.943390,513.265930 
	C319.041748,510.307831 316.441528,507.054047 313.892273,503.630798 
	C315.568604,502.655457 317.054199,501.986633 318.887024,501.491699 
	C320.127045,501.066528 321.019806,500.467407 322.135376,499.691528 
	C322.902924,499.361603 323.447693,499.208435 324.245087,499.299072 
	C328.221710,498.568787 332.069794,497.919678 335.644531,496.554688 
	C343.713135,493.473755 351.646606,490.038940 359.939026,486.823853 
	C360.652863,486.947174 361.062714,486.994720 361.472565,487.042267 
z"/>
<path fill="#028DAA" opacity="1.000000" stroke="none" 
	d="
M313.701538,503.937317 
	C316.441528,507.054047 319.041748,510.307831 321.943390,513.265930 
	C347.712280,539.537170 373.546570,565.744263 399.336426,591.994873 
	C414.737457,607.671143 430.095856,623.389343 445.469177,639.092834 
	C476.098389,670.379944 506.731628,701.663147 537.350037,732.960815 
	C566.570496,762.829407 595.780945,792.707764 624.983215,822.594116 
	C652.904236,851.169128 680.800598,879.768188 708.730713,908.334229 
	C712.671204,912.364441 716.742249,916.266846 720.828064,920.543335 
	C708.908020,925.905640 696.914062,930.956177 684.913757,935.991455 
	C684.306946,936.246094 683.598267,936.276062 683.015625,936.567688 
	C672.412842,941.874634 673.865112,941.300720 665.874390,933.203979 
	C642.600891,909.621643 619.491272,885.877380 596.368408,862.146790 
	C589.206177,854.796448 582.207275,847.286865 574.917603,839.274414 
	C574.211121,838.423584 573.720703,838.148499 573.230286,837.873474 
	C573.230286,837.873474 572.991638,837.582092 572.916870,837.067322 
	C572.176453,836.095215 571.510803,835.637878 570.845154,835.180481 
	C570.845154,835.180481 570.949097,835.020325 570.900879,834.745117 
	C570.181030,834.045593 569.509460,833.621277 568.837891,833.196899 
	C568.837891,833.196899 568.924988,833.051331 568.883911,832.763000 
	C568.166016,832.063599 567.489136,831.652466 566.812317,831.241333 
	C566.812317,831.241333 566.838501,831.151306 566.842896,830.813354 
	C565.519775,829.371399 564.192261,828.267517 562.864685,827.163635 
	C562.864685,827.163635 562.947266,827.019714 562.908936,826.727112 
	C560.871521,824.669128 558.872437,822.903687 556.873352,821.138306 
	C556.873352,821.138306 556.999329,821.020813 556.958618,820.707275 
	C554.455994,817.147827 552.299561,813.605835 549.484741,810.702148 
	C522.227783,782.585083 494.876770,754.559082 467.518311,726.540588 
	C451.708313,710.349121 435.832458,694.221863 419.991730,678.060364 
	C403.729218,661.468628 387.476532,644.867249 371.213562,628.275940 
	C362.036804,618.913940 352.995819,609.411804 343.600800,600.273865 
	C339.048431,595.846008 333.821869,592.111267 328.900543,588.062683 
	C320.301453,579.429321 311.733856,570.764160 303.076691,562.189392 
	C301.349762,560.478943 299.280731,559.113953 297.000732,557.432983 
	C296.140442,542.195435 295.648865,527.114563 295.486176,511.391449 
	C301.777222,508.478546 307.739380,506.207947 313.701538,503.937317 
z"/>
<path fill="#5FDFE6" opacity="1.000000" stroke="none" 
	d="
M132.291168,653.162964 
	C130.936966,651.360291 129.264771,649.493469 129.126007,647.518799 
	C128.741440,642.046021 129.025421,636.528198 128.993073,631.028442 
	C128.615814,566.883667 128.253540,502.738770 127.836159,438.594208 
	C127.544563,393.780762 127.167603,348.967926 126.840553,304.154724 
	C126.491592,256.339783 126.200607,208.524399 125.798958,160.709915 
	C125.555496,131.728180 125.150131,102.747795 125.089897,73.157059 
	C126.379120,71.737495 127.279823,70.655647 128.432343,70.163620 
	C134.298492,67.659271 140.281937,65.424263 146.103607,62.824661 
	C147.660294,62.129543 148.792496,60.483871 150.119583,59.274590 
	C156.780548,56.533939 163.441498,53.793297 170.444611,51.124508 
	C170.597229,56.111069 170.223694,61.026608 170.245987,65.940346 
	C170.534561,129.555695 170.849686,193.170959 171.219818,256.785889 
	C171.497894,304.578430 171.854401,352.370453 172.195480,400.162598 
	C172.509216,444.120911 172.826294,488.079163 173.184799,532.037109 
	C173.448242,564.334961 173.768219,596.632446 174.114212,628.929565 
	C174.135284,630.896851 174.607620,632.859253 174.917908,635.285156 
	C160.868210,641.514099 146.770569,647.281860 132.291168,653.162964 
z"/>
<path fill="#61DFE5" opacity="1.000000" stroke="none" 
	d="
M746.683105,326.015137 
	C747.177063,349.925934 747.559814,373.839722 748.211975,397.746216 
	C748.537415,409.678131 749.180054,421.609283 750.040710,433.514679 
	C750.365234,438.004242 749.144287,440.240204 744.707153,441.924622 
	C731.375366,446.985779 718.273499,452.652771 704.625244,457.618774 
	C703.043274,419.478607 701.918030,381.803040 700.792786,344.127502 
	C713.639771,338.667755 726.486694,333.208038 739.846436,327.765930 
	C740.546692,327.752991 740.668335,327.646698 740.724243,327.464661 
	C741.185486,327.251831 741.646729,327.039032 742.666199,326.786255 
	C743.485352,326.490112 743.746338,326.233978 744.007324,325.977875 
	C744.411743,325.753113 744.816162,325.528320 745.651489,325.427429 
	C746.227783,325.777100 746.428040,325.931702 746.683105,326.015137 
z"/>
<path fill="#048EAA" opacity="1.000000" stroke="none" 
	d="
M700.444153,344.093964 
	C701.918030,381.803040 703.043274,419.478607 704.263428,457.617523 
	C704.358276,458.080872 704.229736,458.233002 703.956421,458.242004 
	C703.385986,458.329865 703.202576,458.518951 703.132812,458.818268 
	C690.958557,463.891846 678.762329,468.913757 666.624512,474.072937 
	C663.327393,475.474335 660.206421,477.290009 656.593872,478.392731 
	C655.812500,464.959534 655.441895,452.049194 655.352295,439.033203 
	C656.442200,438.436768 657.251160,437.945953 658.060059,437.455139 
	C666.872131,433.715637 675.684204,429.976135 685.266113,425.909943 
	C674.162903,414.643005 663.614502,403.939087 653.022217,392.935364 
	C652.990173,384.497223 653.161377,376.354309 652.930725,368.222778 
	C652.845886,365.232849 653.984741,363.537231 656.485657,362.486847 
	C668.017822,357.643250 679.569946,352.847351 691.103699,348.007568 
	C694.121643,346.741150 697.099365,345.378784 700.444153,344.093964 
z"/>
<path fill="#B5B5B5" opacity="1.000000" stroke="none" 
	d="
M865.324219,861.976929 
	C872.661316,857.756409 871.078186,850.470825 871.065979,843.732971 
	C871.048279,833.901733 872.041565,823.928589 870.738647,814.267456 
	C867.476440,790.076538 869.649597,765.856812 869.167542,741.665527 
	C868.464172,706.373230 868.415588,671.067688 868.117920,635.767578 
	C867.776733,595.305054 867.481628,554.842102 867.141663,514.379578 
	C866.846619,479.251587 866.324707,444.124237 866.265869,408.996002 
	C866.222046,382.867645 866.921753,356.738678 866.976929,330.609344 
	C867.011353,314.312927 866.471375,298.015137 866.157043,281.718567 
	C866.135925,280.626129 865.842407,279.538940 865.577637,277.809479 
	C856.274109,281.895874 847.508118,286.025024 838.518982,289.591858 
	C832.957581,291.798615 827.056763,293.150360 820.900635,294.695404 
	C834.113159,288.862671 847.724976,283.199615 861.363647,277.602264 
	C863.272400,276.818939 865.313721,276.358521 867.938965,275.549866 
	C868.114258,278.135254 868.324890,279.889893 868.339355,281.646118 
	C869.561707,430.364105 870.795837,579.081970 871.959900,727.800354 
	C872.281860,768.930054 872.246460,810.063232 872.762329,851.189880 
	C872.836243,857.087646 870.888550,860.271301 865.324219,861.976929 
z"/>
<path fill="#075E72" opacity="1.000000" stroke="none" 
	d="
M328.938965,588.405518 
	C333.821869,592.111267 339.048431,595.846008 343.600800,600.273865 
	C352.995819,609.411804 362.036804,618.913940 371.213562,628.275940 
	C387.476532,644.867249 403.729218,661.468628 419.991730,678.060364 
	C435.832458,694.221863 451.708313,710.349121 467.518311,726.540588 
	C494.876770,754.559082 522.227783,782.585083 549.484741,810.702148 
	C552.299561,813.605835 554.455994,817.147827 556.889893,820.758667 
	C546.514038,811.075562 535.985718,801.205627 525.857239,790.941040 
	C506.711121,771.537476 487.824371,751.878357 468.775360,732.378601 
	C446.234222,709.304138 423.643188,686.278442 401.059265,663.245850 
	C383.603088,645.442871 366.075317,627.709900 348.680786,609.847046 
	C341.968872,602.954468 335.536896,595.789368 328.938965,588.405518 
z"/>
<path fill="#AEAEAE" opacity="1.000000" stroke="none" 
	d="
M408.981628,147.056427 
	C403.577179,142.038559 398.032471,137.162079 392.800415,131.970459 
	C384.470245,123.704697 376.158508,115.404366 368.198883,106.786247 
	C361.880920,99.945610 356.101898,92.607201 350.160278,85.135101 
	C356.533722,90.912560 362.936615,96.940109 369.105377,103.198387 
	C382.462250,116.749069 395.699280,130.417892 409.015869,144.755753 
	C409.024841,146.000885 409.003235,146.528656 408.981628,147.056427 
z"/>
<path fill="#AEAEAE" opacity="1.000000" stroke="none" 
	d="
M285.053467,17.554470 
	C283.134369,16.583109 281.302734,14.858771 279.132080,14.082993 
	C276.398376,13.105996 272.943359,11.697054 270.571045,12.570284 
	C258.289124,17.091131 246.295792,22.387951 234.119003,27.204823 
	C223.582245,31.372929 212.891434,35.151604 202.354904,39.320271 
	C197.334930,41.306370 192.543747,43.864319 187.585709,46.017654 
	C186.280090,46.584694 184.739136,46.609863 182.911011,46.683174 
	C192.509750,42.165958 202.442780,37.701172 212.510788,33.564896 
	C231.352371,25.824142 250.311401,18.368509 269.130768,10.575014 
	C273.608917,8.720524 277.254547,8.440480 280.504303,12.573567 
	C281.828552,14.257787 283.485046,15.680799 285.053467,17.554470 
z"/>
<path fill="#BAB9BA" opacity="1.000000" stroke="none" 
	d="
M519.843994,257.720947 
	C517.823303,256.821533 515.408997,255.950119 513.768799,254.306320 
	C502.988983,243.502380 492.464447,232.443436 481.670410,221.654037 
	C476.484985,216.470825 470.780090,211.809845 465.535950,206.681747 
	C463.106018,204.305649 461.215240,201.378235 459.396759,198.345108 
	C460.185608,197.961105 460.657776,197.932739 461.129913,197.904388 
	C461.129913,197.904388 461.020721,197.957764 461.067810,198.258102 
	C461.805328,198.991516 462.495758,199.424591 463.186188,199.857666 
	C463.186188,199.857666 463.069092,199.941422 463.096497,200.224518 
	C463.783966,200.981415 464.443970,201.455215 465.104004,201.929001 
	C465.104004,201.929001 465.019379,201.987061 465.059753,202.282990 
	C465.773193,203.024475 466.446259,203.470032 467.119324,203.915558 
	C467.119324,203.915558 467.029358,203.982468 467.067993,204.273193 
	C467.773743,205.017319 468.440857,205.470734 469.107971,205.924164 
	C469.107971,205.924164 469.023163,205.988022 469.064392,206.279541 
	C469.766266,207.027588 470.426971,207.484100 471.087646,207.940613 
	C471.087646,207.940613 471.016144,207.996796 471.054596,208.293533 
	C471.755615,209.042038 472.418152,209.493805 473.080719,209.945572 
	C473.080719,209.945572 473.015137,209.999817 473.052643,210.299896 
	C473.760712,211.042801 474.431305,211.485611 475.101898,211.928406 
	C475.101898,211.928406 475.026367,211.994675 475.061646,212.283142 
	C475.739532,213.042633 476.382141,213.513641 477.024750,213.984680 
	C477.024750,213.984680 477.000488,214.001358 477.037292,214.321075 
	C477.741577,215.082825 478.409058,215.524872 479.076538,215.966919 
	C492.653809,229.775192 506.231110,243.583466 519.843994,257.720947 
z"/>
<path fill="#A9A8A8" opacity="1.000000" stroke="none" 
	d="
M409.117950,147.364410 
	C409.003235,146.528656 409.024841,146.000885 409.084045,145.078781 
	C418.356049,153.877823 427.599304,163.062286 436.815918,172.273392 
	C438.325226,173.781784 439.717438,175.407272 441.134827,177.428848 
	C441.105896,177.879089 440.889618,178.115814 440.553680,178.072113 
	C439.764404,178.046555 439.311066,178.064667 438.857727,178.082794 
	C428.989929,167.945984 419.122101,157.809189 409.117950,147.364410 
z"/>
<path fill="#B5B5B5" opacity="1.000000" stroke="none" 
	d="
M747.078735,325.950195 
	C746.428040,325.931702 746.227783,325.777100 745.996460,325.377197 
	C752.533081,322.215240 759.095337,319.083649 765.792786,316.274353 
	C775.203308,312.327087 784.714233,308.619263 794.572144,304.866455 
	C792.081604,306.860657 789.416504,309.302032 786.280579,310.639984 
	C776.683044,314.734833 766.910095,318.419586 757.193481,322.233612 
	C753.972290,323.498016 750.715088,324.670654 747.078735,325.950195 
z"/>
<path fill="#B5B5B5" opacity="1.000000" stroke="none" 
	d="
M790.421143,893.084900 
	C794.069824,890.894653 797.997559,888.493347 802.163086,886.621338 
	C812.346863,882.044922 822.627869,877.683167 832.904541,873.316956 
	C834.377747,872.691101 836.044067,872.519653 838.027588,872.255371 
	C825.921387,877.935425 813.419373,883.522400 800.888611,889.044006 
	C797.574219,890.504456 794.170837,891.763306 790.421143,893.084900 
z"/>
<path fill="#AEAEAE" opacity="1.000000" stroke="none" 
	d="
M332.307434,66.252060 
	C331.342957,66.137192 330.132782,65.912270 329.420776,65.193733 
	C321.458130,57.157974 313.558807,49.059162 305.690674,40.930576 
	C305.041473,40.259880 304.744690,39.248093 304.330383,38.045082 
	C312.346008,45.656937 320.323151,53.610703 328.277313,61.587418 
	C329.665588,62.979660 330.957001,64.468521 332.307434,66.252060 
z"/>
<path fill="#4F969D" opacity="1.000000" stroke="none" 
	d="
M149.759888,59.327148 
	C148.792496,60.483871 147.660294,62.129543 146.103607,62.824661 
	C140.281937,65.424263 134.298492,67.659271 128.432343,70.163620 
	C127.279823,70.655647 126.379120,71.737495 125.035461,72.679718 
	C124.464378,72.577995 124.220116,72.343864 123.856598,71.876816 
	C127.486031,69.539108 131.132187,67.217339 135.009705,65.385223 
	C139.704315,63.167038 144.594604,61.362976 149.759888,59.327148 
z"/>
<path fill="#B5B5B5" opacity="1.000000" stroke="none" 
	d="
M819.486694,294.743958 
	C819.232666,295.662811 818.770691,297.008179 817.922241,297.327850 
	C810.828186,300.001099 803.663147,302.485779 796.105835,304.892151 
	C803.494629,301.402985 811.297119,298.049011 819.486694,294.743958 
z"/>
<path fill="#B5B5B5" opacity="1.000000" stroke="none" 
	d="
M840.361694,872.012451 
	C845.567261,869.372009 851.151611,866.781433 857.132690,864.361450 
	C851.933167,867.042175 846.336853,869.552246 840.361694,872.012451 
z"/>
<path fill="#AEAEAE" opacity="1.000000" stroke="none" 
	d="
M294.961914,27.637352 
	C291.729767,24.844870 288.417847,21.726023 285.107910,18.244415 
	C288.367310,21.024763 291.624756,24.167875 294.961914,27.637352 
z"/>
<path fill="#BAB9BA" opacity="1.000000" stroke="none" 
	d="
M529.818787,267.722412 
	C524.844482,267.156769 522.233826,263.513824 520.120850,259.054962 
	C523.409790,261.586853 526.593506,264.487213 529.818787,267.722412 
z"/>
<path fill="#AEAEAE" opacity="1.000000" stroke="none" 
	d="
M304.251099,37.290802 
	C301.187683,34.650249 298.090149,31.670448 295.014282,28.325207 
	C298.096313,30.957029 301.156647,33.954292 304.251099,37.290802 
z"/>
<path fill="#028DAA" opacity="1.000000" stroke="none" 
	d="
M296.556702,583.535522 
	C296.013000,580.094360 295.735077,576.526917 295.806030,572.664185 
	C296.377411,576.049072 296.599915,579.729187 296.556702,583.535522 
z"/>
<path fill="#075E72" opacity="1.000000" stroke="none" 
	d="
M556.914978,821.472595 
	C558.872437,822.903687 560.871521,824.669128 562.853821,826.789185 
	C560.876892,825.364807 558.916748,823.585876 556.914978,821.472595 
z"/>
<path fill="#A9A8A8" opacity="1.000000" stroke="none" 
	d="
M441.212738,177.759583 
	C442.587585,178.772934 443.855621,179.905823 445.103607,181.472153 
	C445.083588,181.905609 444.869446,182.129303 444.558899,182.029968 
	C443.128784,180.659027 442.009216,179.387421 440.889618,178.115814 
	C440.889618,178.115814 441.105896,177.879089 441.212738,177.759583 
z"/>
<path fill="#075E72" opacity="1.000000" stroke="none" 
	d="
M562.922485,827.486572 
	C564.192261,828.267517 565.519775,829.371399 566.801025,830.834351 
	C565.496582,830.065430 564.238403,828.937439 562.922485,827.486572 
z"/>
<path fill="#B5B5B5" opacity="1.000000" stroke="none" 
	d="
M859.346985,864.087830 
	C859.866821,863.453979 860.727478,862.894775 861.776855,862.572632 
	C861.206299,863.260559 860.447021,863.711487 859.346985,864.087830 
z"/>
<path fill="#075E72" opacity="1.000000" stroke="none" 
	d="
M570.894836,835.488281 
	C571.510803,835.637878 572.176453,836.095215 572.822021,836.904663 
	C572.182800,836.769836 571.563660,836.282959 570.894836,835.488281 
z"/>
<path fill="#AEAEAE" opacity="1.000000" stroke="none" 
	d="
M346.232178,80.433060 
	C345.531342,80.329124 344.837769,79.901978 344.195862,79.127312 
	C344.911469,79.223145 345.575439,79.666496 346.232178,80.433060 
z"/>
<path fill="#AEAEAE" opacity="1.000000" stroke="none" 
	d="
M336.262115,70.363365 
	C335.557404,70.275330 334.848602,69.864784 334.205872,69.108475 
	C334.933990,69.188759 335.596008,69.614807 336.262115,70.363365 
z"/>
<path fill="#AEAEAE" opacity="1.000000" stroke="none" 
	d="
M334.268738,68.406403 
	C333.566895,68.275917 332.886993,67.827408 332.300537,67.038361 
	C333.026184,67.161339 333.658447,67.624855 334.268738,68.406403 
z"/>
<path fill="#028DAA" opacity="1.000000" stroke="none" 
	d="
M296.183167,561.713440 
	C295.843201,561.189575 295.736664,560.668823 295.873413,560.162964 
	C296.216675,560.690735 296.316620,561.203674 296.183167,561.713440 
z"/>
<path fill="#075E72" opacity="1.000000" stroke="none" 
	d="
M568.890015,833.501770 
	C569.509460,833.621277 570.181030,834.045593 570.836060,834.815308 
	C570.193665,834.709229 569.567871,834.257935 568.890015,833.501770 
z"/>
<path fill="#075E72" opacity="1.000000" stroke="none" 
	d="
M566.864868,831.543335 
	C567.489136,831.652466 568.166016,832.063599 568.822998,832.822021 
	C568.174500,832.728027 567.545898,832.286682 566.864868,831.543335 
z"/>
<path fill="#A9A8A8" opacity="1.000000" stroke="none" 
	d="
M474.998474,211.640884 
	C474.431305,211.485611 473.760712,211.042801 473.070160,210.261139 
	C473.665131,210.399307 474.280090,210.876328 474.998474,211.640884 
z"/>
<path fill="#A9A8A8" opacity="1.000000" stroke="none" 
	d="
M451.321320,187.713043 
	C451.919189,188.190872 452.517059,188.668701 453.081970,189.545364 
	C453.048981,189.944183 452.850800,190.148590 452.560577,190.054474 
	C451.803131,189.352386 451.335907,188.744431 450.980286,188.028961 
	C451.091919,187.921448 451.321320,187.713043 451.321320,187.713043 
z"/>
<path fill="#A9A8A8" opacity="1.000000" stroke="none" 
	d="
M453.146271,189.840271 
	C453.862091,190.201035 454.480591,190.665710 455.077087,191.533661 
	C455.055023,191.936920 454.848663,192.151077 454.558502,192.057770 
	C453.795837,191.359177 453.323303,190.753891 452.850800,190.148590 
	C452.850800,190.148590 453.048981,189.944183 453.146271,189.840271 
z"/>
<path fill="#A9A8A8" opacity="1.000000" stroke="none" 
	d="
M455.156097,191.827850 
	C455.870392,192.194855 456.483643,192.670914 457.070679,193.548050 
	C457.044525,193.949142 456.851898,194.147949 456.561615,194.054840 
	C455.797089,193.358185 455.322876,192.754639 454.848663,192.151077 
	C454.848663,192.151077 455.055023,191.936920 455.156097,191.827850 
z"/>
<path fill="#A9A8A8" opacity="1.000000" stroke="none" 
	d="
M457.139160,193.848145 
	C457.865082,194.200012 458.496368,194.652893 459.098755,195.514114 
	C459.069855,195.922455 458.860382,196.133957 458.569397,196.043884 
	C457.802917,195.351852 457.327393,194.749908 456.851898,194.147949 
	C456.851898,194.147949 457.044525,193.949142 457.139160,193.848145 
z"/>
<path fill="#A9A8A8" opacity="1.000000" stroke="none" 
	d="
M461.082642,197.595886 
	C460.657776,197.932739 460.185608,197.961105 459.358917,197.993286 
	C459.004364,197.997101 459.000000,197.999847 459.000793,197.685089 
	C458.954529,196.958206 458.907471,196.546082 458.860413,196.133957 
	C458.860382,196.133957 459.069855,195.922455 459.172424,195.813843 
	C459.861755,196.232620 460.448547,196.759995 461.082642,197.595886 
z"/>
<path fill="#A9A8A8" opacity="1.000000" stroke="none" 
	d="
M463.119019,199.550232 
	C462.495758,199.424591 461.805328,198.991516 461.105774,198.210632 
	C461.748352,198.322800 462.400116,198.782791 463.119019,199.550232 
z"/>
<path fill="#A9A8A8" opacity="1.000000" stroke="none" 
	d="
M465.034973,201.624298 
	C464.443970,201.455215 463.783966,200.981415 463.131348,200.161530 
	C463.747803,200.316803 464.356873,200.818207 465.034973,201.624298 
z"/>
<path fill="#A9A8A8" opacity="1.000000" stroke="none" 
	d="
M467.035767,203.619019 
	C466.446259,203.470032 465.773193,203.024475 465.084747,202.238190 
	C465.696960,202.372437 466.324585,202.847443 467.035767,203.619019 
z"/>
<path fill="#A9A8A8" opacity="1.000000" stroke="none" 
	d="
M469.015869,205.632217 
	C468.440857,205.470734 467.773743,205.017319 467.093689,204.223358 
	C467.695068,204.368622 468.309418,204.854446 469.015869,205.632217 
z"/>
<path fill="#A9A8A8" opacity="1.000000" stroke="none" 
	d="
M470.999146,207.647079 
	C470.426971,207.484100 469.766266,207.027588 469.088928,206.232483 
	C469.685059,206.380432 470.297852,206.866989 470.999146,207.647079 
z"/>
<path fill="#A9A8A8" opacity="1.000000" stroke="none" 
	d="
M472.983459,209.657227 
	C472.418152,209.493805 471.755615,209.042038 471.074493,208.252655 
	C471.666046,208.399643 472.276123,208.884262 472.983459,209.657227 
z"/>
<path fill="#A9A8A8" opacity="1.000000" stroke="none" 
	d="
M476.928375,213.694672 
	C476.382141,213.513641 475.739532,213.042633 475.081055,212.236816 
	C475.654175,212.402908 476.243073,212.903793 476.928375,213.694672 
z"/>
<path fill="#A9A8A8" opacity="1.000000" stroke="none" 
	d="
M478.923645,215.710190 
	C478.409058,215.524872 477.741577,215.082825 477.044220,214.308441 
	C477.599823,214.468552 478.185303,214.961014 478.923645,215.710190 
z"/>
<path fill="#A9A8A8" opacity="1.000000" stroke="none" 
	d="
M449.280426,185.749908 
	C449.901276,186.212051 450.522156,186.674179 451.232178,187.424683 
	C451.321320,187.713043 451.091919,187.921448 450.675903,187.978302 
	C449.847229,188.018692 449.434601,188.002197 449.021973,187.985718 
	C449.021973,187.985718 449.000000,188.000000 449.004303,187.679047 
	C448.960480,186.948730 448.912323,186.539352 448.967529,186.034149 
	C449.070831,185.938309 449.280426,185.749908 449.280426,185.749908 
z"/>
<path fill="#A9A8A8" opacity="1.000000" stroke="none" 
	d="
M447.386841,183.665314 
	C447.970642,184.164276 448.554443,184.663254 449.209351,185.456055 
	C449.280426,185.749908 449.070831,185.938309 448.675659,185.941360 
	C447.818298,185.331528 447.356140,184.718628 447.015747,183.993988 
	C447.137482,183.882233 447.386841,183.665314 447.386841,183.665314 
z"/>
<path fill="#A9A8A8" opacity="1.000000" stroke="none" 
	d="
M445.188202,181.791443 
	C445.927368,182.147171 446.561920,182.617081 447.291687,183.376160 
	C447.386841,183.665314 447.137482,183.882233 446.719055,183.912567 
	C445.823547,183.338348 445.346497,182.733826 444.869446,182.129303 
	C444.869446,182.129303 445.083588,181.905609 445.188202,181.791443 
z"/>
<path fill="#AEAEAE" opacity="1.000000" stroke="none" 
	d="
M350.234375,84.435806 
	C349.516266,84.348648 348.811310,83.933823 348.156067,83.161186 
	C348.886322,83.238297 349.566956,83.673218 350.234375,84.435806 
z"/>
<path fill="#AEAEAE" opacity="1.000000" stroke="none" 
	d="
M348.202026,82.469757 
	C347.505310,82.359512 346.813324,81.924911 346.182373,81.135857 
	C346.897858,81.236069 347.552307,81.690735 348.202026,82.469757 
z"/>
<path fill="#AEAEAE" opacity="1.000000" stroke="none" 
	d="
M344.227417,78.425949 
	C343.545868,78.311203 342.865540,77.870949 342.239563,77.087151 
	C342.938812,77.195892 343.583710,77.648163 344.227417,78.425949 
z"/>
<path fill="#AEAEAE" opacity="1.000000" stroke="none" 
	d="
M342.254669,76.381088 
	C341.549408,76.299217 340.842773,75.896439 340.181061,75.141617 
	C340.901764,75.213112 341.577515,75.636650 342.254669,76.381088 
z"/>
<path fill="#AEAEAE" opacity="1.000000" stroke="none" 
	d="
M340.215668,74.448082 
	C339.518250,74.333038 338.824646,73.892548 338.213715,73.099579 
	C338.937408,73.205612 339.578461,73.664116 340.215668,74.448082 
z"/>
<path fill="#AEAEAE" opacity="1.000000" stroke="none" 
	d="
M338.284210,72.377487 
	C337.569763,72.277092 336.874115,71.856667 336.243011,71.089645 
	C336.972717,71.181183 337.637848,71.619316 338.284210,72.377487 
z"/>
<path fill="#075E72" opacity="1.000000" stroke="none" 
	d="
M573.265869,838.169922 
	C573.720703,838.148499 574.211121,838.423584 574.765259,838.986938 
	C574.319824,839.005554 573.810669,838.735962 573.265869,838.169922 
z"/>
<path fill="#B5B5B5" opacity="1.000000" stroke="none" 
	d="
M743.812866,325.893066 
	C743.746338,326.233978 743.485352,326.490112 743.039795,326.703674 
	C743.109619,326.376831 743.364014,326.092590 743.812866,325.893066 
z"/>
<path fill="#B5B5B5" opacity="1.000000" stroke="none" 
	d="
M740.591431,327.371826 
	C740.668335,327.646698 740.546692,327.752991 740.240234,327.752258 
	C740.121338,327.720947 740.161133,327.401367 740.161133,327.401367 
	C740.161133,327.401367 740.458679,327.279022 740.591431,327.371826 
z"/>
<path fill="#028DAA" opacity="1.000000" stroke="none" 
	d="
M725.480469,919.969055 
	C725.249817,919.539917 725.382812,919.352234 725.880798,919.447754 
	C726.047913,919.864807 725.914062,920.024597 725.480469,919.969055 
z"/>
<path fill="#65E1E6" opacity="1.000000" stroke="none" 
	d="
M288.580383,254.977158 
	C288.408386,252.178482 288.139496,249.381866 288.080078,246.580795 
	C287.691986,228.290588 287.338348,209.999603 287.008453,191.708237 
	C286.974731,189.837860 287.172638,187.963318 287.263092,186.090698 
	C287.738770,185.877899 288.214478,185.665100 288.690155,185.452286 
	C326.797119,225.848709 364.904114,266.245117 403.952179,307.639160 
	C388.027313,314.020325 373.010193,320.037750 357.518494,325.695526 
	C353.242462,321.193420 349.494415,317.000336 345.630310,312.917145 
	C327.692200,293.961884 309.734253,275.025269 291.716217,256.146149 
	C291.023315,255.420151 289.641296,255.351898 288.580383,254.977158 
z"/>
<path fill="#030303" opacity="1.000000" stroke="none" 
	d="
M313.892273,503.630798 
	C307.739380,506.207947 301.777222,508.478546 295.510223,510.929749 
	C294.870087,510.929413 294.534760,510.748505 294.255432,509.964355 
	C294.104889,501.294678 293.981628,493.224609 293.637207,485.164032 
	C293.543427,482.970062 292.783295,480.804535 292.328979,478.625977 
	C292.363861,476.809509 292.398773,474.993011 292.696198,472.618439 
	C294.405640,471.041412 295.762756,469.850342 297.317841,469.038574 
	C300.819885,467.210510 304.419983,465.570282 307.980225,463.853638 
	C308.400208,463.775146 308.820190,463.696655 309.871765,463.544983 
	C331.592102,454.751312 352.654907,445.967194 373.786255,437.351166 
	C379.719452,434.932007 385.854218,433.007111 391.971741,431.203247 
	C397.681763,437.845306 403.389557,444.076385 408.919067,450.461823 
	C411.497253,453.439087 413.730011,456.715454 415.779877,459.989990 
	C413.764771,461.094757 412.175964,462.278137 410.400085,463.003784 
	C393.659882,469.843567 376.887756,476.605225 359.771271,483.344543 
	C357.913452,483.982300 356.414062,484.675842 354.904236,485.345917 
	C344.601562,489.918457 334.296661,494.486084 323.992493,499.055298 
	C323.447693,499.208435 322.902924,499.361603 321.814484,499.649841 
	C320.360474,500.295898 319.450104,500.806824 318.539764,501.317780 
	C317.054199,501.986633 315.568604,502.655457 313.892273,503.630798 
z"/>
<path fill="#68DFE6" opacity="1.000000" stroke="none" 
	d="
M531.112244,488.045715 
	C525.941284,482.652344 520.654663,477.364380 515.623169,471.843903 
	C504.755707,459.920593 494.091278,447.810944 483.112244,435.992645 
	C482.068115,434.868713 479.179138,434.575287 477.511719,435.086639 
	C473.254333,436.392303 469.203369,438.371063 464.631287,439.669128 
	C463.087952,437.654602 462.125916,435.927002 460.854492,434.469177 
	C453.924652,426.523071 446.918610,418.643372 439.938782,410.740845 
	C447.806641,407.284882 455.654694,403.782867 463.549347,400.389282 
	C468.740845,398.157684 474.035126,396.164001 479.214233,393.905182 
	C482.103394,392.645172 484.432281,392.543976 486.806335,395.120544 
	C502.918518,412.607086 519.103088,430.027100 535.314209,447.422150 
	C543.909546,456.645264 552.604919,465.775116 561.583252,475.348206 
	C561.928650,476.121857 561.945984,476.494324 561.606201,476.961395 
	C552.061218,480.709076 542.873413,484.362183 533.365479,487.982605 
	C532.401001,487.981812 531.756653,488.013763 531.112244,488.045715 
z"/>
<path fill="#058FAC" opacity="1.000000" stroke="none" 
	d="
M288.602692,255.453156 
	C289.641296,255.351898 291.023315,255.420151 291.716217,256.146149 
	C309.734253,275.025269 327.692200,293.961884 345.630310,312.917145 
	C349.494415,317.000336 353.242462,321.193420 357.147034,325.673309 
	C346.429779,330.697784 335.609467,335.384827 324.177795,340.190247 
	C322.895325,340.712158 322.224243,341.115631 321.553192,341.519104 
	C321.553192,341.519104 321.167633,341.579498 320.762177,341.659302 
	C320.356720,341.739105 320.020355,342.061951 320.020355,342.061951 
	C319.222961,342.342072 318.425537,342.622192 317.088501,343.019775 
	C316.302429,343.375458 316.055969,343.613586 315.809509,343.851746 
	C315.430939,343.987274 315.052399,344.122833 314.090729,344.320007 
	C312.380249,344.599121 311.252899,344.816589 309.884491,344.794556 
	C303.407684,338.310272 297.171875,332.065521 290.858398,325.380859 
	C290.489441,321.321289 290.198151,317.701630 289.906891,314.082001 
	C289.479584,294.697723 289.052277,275.313416 288.602692,255.453156 
z"/>
<path fill="#078FAC" opacity="1.000000" stroke="none" 
	d="
M439.558289,410.790924 
	C446.918610,418.643372 453.924652,426.523071 460.854492,434.469177 
	C462.125916,435.927002 463.087952,437.654602 464.263916,439.610840 
	C453.826080,444.432007 443.317078,448.899994 432.271698,453.438721 
	C431.373993,453.557800 431.198822,453.764343 431.209808,454.129028 
	C427.388824,455.659943 423.567841,457.190826 419.181396,458.792206 
	C418.417694,458.774200 418.219452,458.685760 417.983398,458.267700 
	C416.929901,456.285339 416.135315,454.434448 414.861664,453.012848 
	C407.929565,445.275513 400.879456,437.643982 394.042603,429.772522 
	C394.794067,429.211334 395.372894,428.853760 395.951721,428.496124 
	C410.360382,422.611053 424.769104,416.726044 439.558289,410.790924 
z"/>
<path fill="#ACADAE" opacity="1.000000" stroke="none" 
	d="
M561.963379,476.866821 
	C561.945984,476.494324 561.928650,476.121857 561.901794,475.470825 
	C566.298828,473.257812 570.716064,471.347534 575.109924,469.384674 
	C593.360291,461.231934 611.571289,452.989746 629.866760,444.939514 
	C636.486328,442.026764 643.226868,439.337402 650.072876,437.020996 
	C652.198120,436.301941 654.852356,437.146271 657.662231,437.364990 
	C657.251160,437.945953 656.442200,438.436768 654.964111,438.967224 
	C653.641052,439.086548 652.925842,439.020630 652.342285,439.266907 
	C632.611267,447.594727 612.918274,456.013184 593.162048,464.280487 
	C582.818176,468.608978 572.366394,472.679657 561.963379,476.866821 
z"/>
<path fill="#B2B3B3" opacity="1.000000" stroke="none" 
	d="
M395.538208,428.364899 
	C395.372894,428.853760 394.794067,429.211334 393.758118,429.782227 
	C392.832794,430.282166 392.364655,430.568817 391.896515,430.855469 
	C385.854218,433.007111 379.719452,434.932007 373.786255,437.351166 
	C352.654907,445.967194 331.592102,454.751312 310.154785,463.393188 
	C314.245850,461.025146 318.670654,458.706207 323.128754,456.453186 
	C329.857147,453.052765 336.461945,449.354919 343.381439,446.396759 
	C357.250580,440.467499 371.241272,434.808197 385.315369,429.384277 
	C388.291016,428.237518 391.839935,428.578247 395.538208,428.364899 
z"/>
<path fill="#BEC9CB" opacity="1.000000" stroke="none" 
	d="
M289.635559,314.372314 
	C290.198151,317.701630 290.489441,321.321289 290.729126,325.793335 
	C290.677521,335.478302 290.677521,344.310883 290.677521,354.963165 
	C298.167114,351.139404 304.146332,348.086731 310.125519,345.034058 
	C311.252899,344.816589 312.380249,344.599121 313.837158,344.484711 
	C309.500519,349.928528 303.210571,352.511353 296.842407,355.116974 
	C291.456146,357.320831 287.116333,355.385803 287.281464,349.568207 
	C287.527283,340.909149 285.259094,332.111450 288.841217,323.531464 
	C289.918121,320.951996 289.238953,317.639374 289.635559,314.372314 
z"/>
<path fill="#B2B3B3" opacity="1.000000" stroke="none" 
	d="
M292.146454,479.090149 
	C292.783295,480.804535 293.543427,482.970062 293.637207,485.164032 
	C293.981628,493.224609 294.104889,501.294678 294.168152,509.681671 
	C293.404053,508.581696 292.282166,507.174500 292.244232,505.738647 
	C292.013641,497.014130 292.029999,488.283142 292.146454,479.090149 
z"/>
<path fill="#B2B3B3" opacity="1.000000" stroke="none" 
	d="
M307.752014,463.626556 
	C304.419983,465.570282 300.819885,467.210510 297.317841,469.038574 
	C295.762756,469.850342 294.405640,471.041412 292.652222,472.231445 
	C293.110687,470.997070 293.535126,468.862671 294.701996,468.317566 
	C298.838989,466.385010 303.229431,464.995026 307.752014,463.626556 
z"/>
<path fill="#BAB9BA" opacity="1.000000" stroke="none" 
	d="
M449.031525,188.349396 
	C449.434601,188.002197 449.847229,188.018692 450.564270,188.085831 
	C451.335907,188.744431 451.803131,189.352386 452.560577,190.054474 
	C453.323303,190.753891 453.795837,191.359177 454.558502,192.057770 
	C455.322876,192.754639 455.797089,193.358185 456.561615,194.054840 
	C457.327393,194.749908 457.802917,195.351852 458.569427,196.043884 
	C458.907471,196.546082 458.954529,196.958206 459.002625,197.682465 
	C454.361847,196.318649 450.697479,193.593491 449.031525,188.349396 
z"/>
<path fill="#BAB9BA" opacity="1.000000" stroke="none" 
	d="
M444.558899,182.029968 
	C445.346497,182.733826 445.823547,183.338348 446.597290,184.024307 
	C447.356140,184.718628 447.818298,185.331528 448.572327,186.037201 
	C448.912323,186.539352 448.960480,186.948730 449.011658,187.667999 
	C445.676025,184.911209 442.337372,181.844498 438.928223,178.430298 
	C439.311066,178.064667 439.764404,178.046555 440.553680,178.072113 
	C442.009216,179.387421 443.128784,180.659027 444.558899,182.029968 
z"/>
<path fill="#BEC9CB" opacity="1.000000" stroke="none" 
	d="
M321.860901,341.638580 
	C322.224243,341.115631 322.895325,340.712158 323.862183,340.373962 
	C323.494843,340.878876 322.831726,341.318481 321.860901,341.638580 
z"/>
<path fill="#BEC9CB" opacity="1.000000" stroke="none" 
	d="
M316.070007,343.872681 
	C316.055969,343.613586 316.302429,343.375458 316.813232,343.180054 
	C316.828552,343.446411 316.579529,343.670013 316.070007,343.872681 
z"/>
<path fill="#BEC9CB" opacity="1.000000" stroke="none" 
	d="
M320.118042,342.213928 
	C320.020355,342.061951 320.356720,341.739105 320.589172,341.749573 
	C320.619659,341.962006 320.417694,342.163940 320.118042,342.213928 
z"/>
<path fill="#63E0E6" opacity="1.000000" stroke="none" 
	d="
M707.020996,575.746094 
	C721.909790,569.357300 736.798584,562.968506 752.658997,556.162781 
	C753.905701,613.065063 755.124451,668.693298 756.343201,724.321472 
	C755.837524,724.618835 755.331909,724.916199 754.826233,725.213562 
	C739.334290,709.949036 724.955444,693.597839 710.010925,676.901001 
	C709.626343,673.340515 709.235779,670.540283 709.170532,667.732605 
	C708.731201,648.836182 708.385864,629.937683 707.958740,611.040955 
	C707.692688,599.274963 707.336670,587.510986 707.020996,575.746094 
z"/>
<path fill="#030303" opacity="1.000000" stroke="none" 
	d="
M561.606201,476.961395 
	C572.366394,472.679657 582.818176,468.608978 593.162048,464.280487 
	C612.918274,456.013184 632.611267,447.594727 652.342285,439.266907 
	C652.925842,439.020630 653.641052,439.086548 654.683105,439.072876 
	C655.441895,452.049194 655.812500,464.959534 656.262939,478.317352 
	C656.124207,478.807465 655.905762,478.850128 655.050537,479.177551 
	C640.738647,485.030396 627.043640,490.549805 613.395508,496.182953 
	C603.613586,500.220367 593.894653,504.410095 583.820557,508.557434 
	C581.666443,509.399658 579.839294,510.216370 577.661255,511.021790 
	C576.302917,511.556213 575.295532,512.101929 574.213867,512.656128 
	C574.139526,512.664551 574.009277,512.738098 573.618225,512.770264 
	C569.371338,514.332153 565.575073,516.052490 561.626770,517.286255 
	C560.281250,517.706726 557.960144,517.473022 557.093445,516.570190 
	C549.732666,508.902130 542.532593,501.074463 535.481750,493.119629 
	C534.373779,491.869598 534.259399,489.738831 533.685608,488.015320 
	C542.873413,484.362183 552.061218,480.709076 561.606201,476.961395 
z"/>
<path fill="#048FAD" opacity="1.000000" stroke="none" 
	d="
M706.638550,575.800720 
	C707.336670,587.510986 707.692688,599.274963 707.958740,611.040955 
	C708.385864,629.937683 708.731201,648.836182 709.170532,667.732605 
	C709.235779,670.540283 709.626343,673.340515 709.935669,676.570557 
	C700.263916,667.081787 690.470154,657.217834 680.801880,647.232178 
	C675.030212,641.270996 669.455505,635.119141 663.463684,628.621094 
	C662.952332,627.897095 662.688660,627.744934 662.344116,627.732788 
	C661.849792,627.153503 661.355530,626.574158 660.538818,625.491333 
	C660.067871,624.534546 659.919312,624.081360 659.774292,623.187256 
	C659.559937,613.806213 659.342041,604.866028 659.342407,595.700806 
	C660.778809,594.760620 661.996887,594.045410 663.214966,593.330322 
	C677.562073,587.505310 691.909180,581.680298 706.638550,575.800720 
z"/>
<path fill="#B6B9B9" opacity="1.000000" stroke="none" 
	d="
M418.021210,458.597290 
	C418.219452,458.685760 418.417694,458.774200 418.904236,459.015839 
	C417.548645,466.217712 410.923676,466.623474 405.869110,468.749329 
	C392.247650,474.478302 378.436310,479.755249 364.716858,485.252838 
	C363.826660,485.609558 363.076538,486.315826 361.866882,486.950867 
	C361.062714,486.994720 360.652863,486.947174 360.002045,486.492615 
	C359.882324,485.186920 360.003571,484.288177 360.124847,483.389465 
	C376.887756,476.605225 393.659882,469.843567 410.400085,463.003784 
	C412.175964,462.278137 413.764771,461.094757 416.078217,459.995514 
	C417.151093,459.443970 417.586151,459.020630 418.021210,458.597290 
z"/>
<path fill="#ABADAC" opacity="1.000000" stroke="none" 
	d="
M584.147583,508.531860 
	C593.894653,504.410095 603.613586,500.220367 613.395508,496.182953 
	C627.043640,490.549805 640.738647,485.030396 654.762695,479.346741 
	C653.076904,480.954071 651.307617,483.302765 648.963684,484.297394 
	C634.662231,490.366333 620.232788,496.134033 605.840454,501.988525 
	C600.125183,504.313354 594.395874,506.603485 587.805664,508.921692 
	C586.008179,508.799927 585.077881,508.665894 584.147583,508.531860 
z"/>
<path fill="#AEAFAF" opacity="1.000000" stroke="none" 
	d="
M533.365479,487.982574 
	C534.259399,489.738831 534.373779,491.869598 535.481750,493.119629 
	C542.532593,501.074463 549.732666,508.902130 557.093445,516.570190 
	C557.960144,517.473022 560.281250,517.706726 561.626770,517.286255 
	C565.575073,516.052490 569.371338,514.332153 573.532043,513.068604 
	C573.557617,513.885559 573.278381,514.436340 572.999084,514.987061 
	C569.172180,516.778198 565.466125,518.969055 561.463501,520.179077 
	C559.667847,520.721924 556.599060,519.982666 555.271912,518.658569 
	C548.052002,511.455811 541.045349,504.020721 534.317810,496.356171 
	C532.615723,494.417023 532.202881,491.346222 531.154907,488.420593 
	C531.756653,488.013763 532.401001,487.981812 533.365479,487.982574 
z"/>
<path fill="#C5C9CA" opacity="1.000000" stroke="none" 
	d="
M662.792847,593.259277 
	C661.996887,594.045410 660.778809,594.760620 658.935181,595.685181 
	C651.800110,597.528259 645.541870,599.685730 639.446655,604.509949 
	C646.571289,611.211914 653.170959,617.420044 659.770691,623.628174 
	C659.919312,624.081360 660.067871,624.534546 660.295898,625.337463 
	C656.868103,626.493530 654.660461,625.227966 652.440796,622.231750 
	C649.299194,617.991028 645.293091,614.385193 641.610168,610.552490 
	C637.041199,605.797607 637.906311,601.584229 643.400879,598.251404 
	C649.326294,594.657288 655.799438,593.928894 662.792847,593.259277 
z"/>
<path fill="#BBBEBD" opacity="1.000000" stroke="none" 
	d="
M583.820557,508.557434 
	C585.077881,508.665894 586.008179,508.799927 587.406494,508.936646 
	C584.861389,510.301086 581.848206,511.662811 578.391479,512.985474 
	C577.947815,512.946350 577.872314,512.867676 577.918335,512.564575 
	C577.980347,511.851959 577.996277,511.442535 578.012207,511.033081 
	C579.839294,510.216370 581.666443,509.399658 583.820557,508.557434 
z"/>
<path fill="#BBBEBD" opacity="1.000000" stroke="none" 
	d="
M573.387573,515.009399 
	C573.278381,514.436340 573.557617,513.885559 573.923096,513.036499 
	C574.009277,512.738098 574.139526,512.664551 574.657593,512.760498 
	C576.074524,512.860168 576.973389,512.863892 577.872314,512.867676 
	C577.872314,512.867676 577.947815,512.946350 577.985779,512.985779 
	C576.607849,513.694031 575.192017,514.362854 573.387573,515.009399 
z"/>
<path fill="#C5C9CA" opacity="1.000000" stroke="none" 
	d="
M662.357544,627.992798 
	C662.688660,627.744934 662.952332,627.897095 663.196411,628.416016 
	C662.962097,628.512756 662.666565,628.382751 662.357544,627.992798 
z"/>
<path fill="#61DFE5" opacity="1.000000" stroke="none" 
	d="
M703.333496,458.875305 
	C703.202576,458.518951 703.385986,458.329865 703.881958,458.308197 
	C704.032349,458.683502 703.850159,458.872528 703.333496,458.875305 
z"/>
<path fill="#B6B9B9" opacity="1.000000" stroke="none" 
	d="
M431.388794,454.146790 
	C431.198822,453.764343 431.373993,453.557800 431.927124,453.623535 
	C432.005463,453.970551 431.821777,454.112854 431.388794,454.146790 
z"/>
<path fill="#48898D" opacity="1.000000" stroke="none" 
	d="
M359.771271,483.344543 
	C360.003571,484.288177 359.882324,485.186920 359.698059,486.416870 
	C351.646606,490.038940 343.713135,493.473755 335.644531,496.554688 
	C332.069794,497.919678 328.221710,498.568787 324.245087,499.299072 
	C334.296661,494.486084 344.601562,489.918457 354.904236,485.345917 
	C356.414062,484.675842 357.913452,483.982300 359.771271,483.344543 
z"/>
<path fill="#48898D" opacity="1.000000" stroke="none" 
	d="
M318.887024,501.491699 
	C319.450104,500.806824 320.360474,500.295898 321.591736,499.826630 
	C321.019806,500.467407 320.127045,501.066528 318.887024,501.491699 
z"/>
<path fill="#0F606E" opacity="1.000000" stroke="none" 
	d="
M417.983398,458.267700 
	C417.586151,459.020630 417.151093,459.443970 416.417694,459.861755 
	C413.730011,456.715454 411.497253,453.439087 408.919067,450.461823 
	C403.389557,444.076385 397.681763,437.845306 391.971741,431.203247 
	C392.364655,430.568817 392.832794,430.282166 393.585419,429.985779 
	C400.879456,437.643982 407.929565,445.275513 414.861664,453.012848 
	C416.135315,454.434448 416.929901,456.285339 417.983398,458.267700 
z"/>
<path fill="#0C1112" opacity="1.000000" stroke="none" 
	d="
M309.884491,344.794556 
	C304.146332,348.086731 298.167114,351.139404 290.677521,354.963165 
	C290.677521,344.310883 290.677521,335.478302 290.806824,326.233276 
	C297.171875,332.065521 303.407684,338.310272 309.884491,344.794556 
z"/>
<path fill="#AEAFAF" opacity="1.000000" stroke="none" 
	d="
M577.918335,512.564575 
	C576.973389,512.863892 576.074524,512.860168 574.731873,512.752075 
	C575.295532,512.101929 576.302917,511.556213 577.661255,511.021790 
	C577.996277,511.442535 577.980347,511.851959 577.918335,512.564575 
z"/>
<path fill="#0B1010" opacity="1.000000" stroke="none" 
	d="
M659.774292,623.187256 
	C653.170959,617.420044 646.571289,611.211914 639.446655,604.509949 
	C645.541870,599.685730 651.800110,597.528259 658.716919,595.910278 
	C659.342041,604.866028 659.559937,613.806213 659.774292,623.187256 
z"/>
</svg>